{"title":"Nasha 2013 MC DVDscrRip x264 MP3 [TMB] - Hindi","uid":8823527,"size":567763176,"categoryP":"video","categoryS":"movies","magnet":"?xt=urn:btih:d17be0ea1f52f798ece021e1217e8cf3fc833243&amp;dn=Nasha+2013+MC+DVDscrRip+x264+MP3+%5BTMB%5D+-+Hindi&amp;tr=udp%3A%2F%2Ftracker.openbittorrent.com%3A80&amp;tr=udp%3A%2F%2Fopen.demonii.com%3A1337&amp;tr=udp%3A%2F%2Ftracker.coppersurfer.tk%3A6969&amp;tr=udp%3A%2F%2Fexodus.desync.com%3A6969","seeders":1,"leechers":0,"uploader":"SJonam","files":2,"time":1376766463,"description":" &lt;a href=&quot;http://desibbrg.org/images/15651891654054630733.jpg&quot; rel=&quot;nofollow&quot; target=&quot;_NEW&quot;&gt;http://desibbrg.org/images/15651891654054630733.jpg&lt;/a&gt; &lt;a href=&quot;\nhttp://desibbrg.org/images/08448338830963440286.png&quot; rel=&quot;nofollow&quot; target=&quot;_NEW&quot;&gt;\nhttp://desibbrg.org/images/08448338830963440286.png&lt;/a&gt; &lt;a href=&quot;\nhttp://desibbrg.org/images/82429335757499514351.png&quot; rel=&quot;nofollow&quot; target=&quot;_NEW&quot;&gt;\nhttp://desibbrg.org/images/82429335757499514351.png&lt;/a&gt; &lt;a href=&quot;\nhttp://desibbrg.org/images/77198537085369594186.png&quot; rel=&quot;nofollow&quot; target=&quot;_NEW&quot;&gt;\nhttp://desibbrg.org/images/77198537085369594186.png&lt;/a&gt; &lt;a href=&quot;\nhttp://desibbrg.org/images/89701556256715063909.png&quot; rel=&quot;nofollow&quot; target=&quot;_NEW&quot;&gt;\nhttp://desibbrg.org/images/89701556256715063909.png&lt;/a&gt; &lt;a href=&quot;\nhttp://desibbrg.org/images/64769525459852465869.png&quot; rel=&quot;nofollow&quot; target=&quot;_NEW&quot;&gt;\nhttp://desibbrg.org/images/64769525459852465869.png&lt;/a&gt;\n\nMedia Info - \nVideo\nFormat                         : AVC\nFormat/Info                    : Advanced Video Codec\nFormat profile                 : &lt;a class=&quot;__cf_email__&quot; href=&quot;/cdn-cgi/l/email-protection&quot; data-cfemail=&quot;2d604c44436d611e031d&quot;&gt;[email&amp;#160;protected]&lt;/a&gt;&lt;script cf-hash='f9e31' type=&quot;text/javascript&quot;&gt;\n/* &lt;![CDATA[ */!function(){try{var t=&quot;currentScript&quot;in document?document.currentScript:function(){for(var t=document.getElementsByTagName(&quot;script&quot;),e=t.length;e--;)if(t[e].getAttribute(&quot;cf-hash&quot;))return t[e]}();if(t&amp;&amp;t.previousSibling){var e,r,n,i,c=t.previousSibling,a=c.getAttribute(&quot;data-cfemail&quot;);if(a){for(e=&quot;&quot;,r=parseInt(a.substr(0,2),16),n=2;a.length-n;n+=2)i=parseInt(a.substr(n,2),16)^r,e+=String.fromCharCode(i);e=document.createTextNode(e),c.parentNode.replaceChild(e,c)}}}catch(u){}}();/* ]]&gt; */&lt;/script&gt;\nFormat settings, CABAC         : Yes\nFormat settings, ReFrames      : 1 frame\nCodec ID                       : H264\nDuration                       : 1h 53mn\nBit rate                       : 388 Kbps\nWidth                          : 720 pixels\nHeight                         : 368 pixels\nDisplay aspect ratio           : 1.957\nFrame rate mode                : Variable\nFrame rate                     : 29.970 fps\nColor space                    : YUV\nChroma subsampling             : 4:2:0\nBit depth                      : 8 bits\nScan type                      : Progressive\nBits/(Pixel*Frame)             : 0.049\nStream size                    : 313 MiB (59%)\nWriting library                : x264 core 129\n\nAudio\nFormat                         : MPEG Audio\nFormat version                 : Version 1\nFormat profile                 : Layer 3\nMode                           : Joint stereo\nCodec ID                       : 55\nCodec ID/Hint                  : MP3\nDuration                       : 1h 53mn\nBit rate mode                  : Constant\nBit rate                       : 256 Kbps\nChannel count                  : 2 channels\nSampling rate                  : 48.0 KHz\nCompression mode               : Lossy\nStream size                    : 208 MiB (39%)\nAlignment                      : Aligned on interleaves\nInterleave, duration           : 24 ms (0.72 video frame)\n\nSample in Torrent...\n\nRipper : Saket\n\nSeeding will be very slow for first few hours ;)\n &lt;a href=&quot;\nhttp://desibbrg.org/images/48627592875446061657.gif&quot; rel=&quot;nofollow&quot; target=&quot;_NEW&quot;&gt;\nhttp://desibbrg.org/images/48627592875446061657.gif&lt;/a&gt;","torrent":{"xt":"urn:btih:d17be0ea1f52f798ece021e1217e8cf3fc833243","amp;dn":"Nasha+2013+MC+DVDscrRip+x264+MP3+%5BTMB%5D+-+Hindi","amp;tr":["udp%3A%2F%2Ftracker.openbittorrent.com%3A80","udp%3A%2F%2Fopen.demonii.com%3A1337","udp%3A%2F%2Ftracker.coppersurfer.tk%3A6969","udp%3A%2F%2Fexodus.desync.com%3A6969"],"infoHash":"d17be0ea1f52f798ece021e1217e8cf3fc833243","infoHashBuffer":{"type":"Buffer","data":[209,123,224,234,31,82,247,152,236,224,33,225,33,126,140,243,252,131,50,67]},"announce":[],"urlList":[]}}